<svg xmlns="http://www.w3.org/2000/svg" viewBox="0 0 36.91 35.78"><defs><style>.cls-1{fill:#bb1f40;}</style></defs><g id="Layer_2" data-name="Layer 2"><g id="Layer_2-2" data-name="Layer 2"><path class="cls-1" d="M30.14,25.8c-3,3.15-6.21,5.63-10.89,5.63C15,31.43,8.54,29,10.34,18.59H36.28l.31-1.8C38.39,6.36,32.26,0,22.52,0,11,0,2,8.08.27,17.92c-1.55,9,3.49,17.86,15.81,17.86,6.54,0,11.22-1.92,17-8.19ZM21.92,3.45c7,0,4.14,10.94,4,11.66a.05.05,0,0,1-.05,0H10.91S13.75,3.45,21.92,3.45Z"/></g></g></svg>