<svg xmlns="http://www.w3.org/2000/svg" viewBox="0 0 410.08 54"><defs><style>.cls-1{fill:#fff;}</style></defs><title>Asset 1</title><g id="Layer_2" data-name="Layer 2"><g id="Layer_1-2" data-name="Layer 1"><path class="cls-1" d="M73.5,2.82a5.84,5.84,0,0,0-5-2.82H64L79.2,27,64,54h4.49a5.86,5.86,0,0,0,5-2.81L87,27Z"/><path class="cls-1" d="M60,0H5.77A5.78,5.78,0,0,0,0,5.79V48.21A5.78,5.78,0,0,0,5.77,54H60L75,27ZM28,39H24L13,21.4V39H9V15h4L24,32.6V15h4Zm8,0H32V15h4Zm23,0H55V29H44V39H40V15h4V25H55V15h4Z"/><polygon class="cls-1" points="107.85 8 110.35 8 110.35 19.18 107.85 19.18 102.53 12.18 102.53 19.18 100.03 19.18 100.03 8 102.36 8 107.85 15.2 107.85 8"/><path class="cls-1" d="M121.07,19.18l-1-2.41h-4.69l-1,2.41h-2.66L116.48,8h2.41l4.83,11.18Zm-3.38-7.85-1.41,3.24h2.8Z"/><polygon class="cls-1" points="128.94 10.16 128.94 19.18 126.44 19.18 126.44 10.16 123.28 10.16 123.28 8 132.11 8 132.11 10.16 128.94 10.16"/><rect class="cls-1" x="133.93" y="8" width="2.5" height="11.18"/><path class="cls-1" d="M148.59,17.64a6.08,6.08,0,0,1-8.35,0,5.53,5.53,0,0,1-1.7-4.12,5.53,5.53,0,0,1,1.7-4.12,6.08,6.08,0,0,1,8.35,0,5.52,5.52,0,0,1,1.69,4.12,5.52,5.52,0,0,1-1.69,4.12m-.85-4.11a3.64,3.64,0,0,0-1-2.55,3.16,3.16,0,0,0-4.72,0,3.64,3.64,0,0,0-1,2.55,3.62,3.62,0,0,0,1,2.54,3.18,3.18,0,0,0,4.72,0,3.62,3.62,0,0,0,1-2.54"/><polygon class="cls-1" points="160.22 8 162.72 8 162.72 19.18 160.22 19.18 154.89 12.18 154.89 19.18 152.4 19.18 152.4 8 154.73 8 160.22 15.2 160.22 8"/><path class="cls-1" d="M173.44,19.18l-1-2.41h-4.69l-1,2.41H164L168.84,8h2.42l4.83,11.18Zm-3.38-7.85-1.41,3.24h2.8Z"/><polygon class="cls-1" points="177.39 19.18 177.39 8 179.88 8 179.88 16.96 184.65 16.96 184.65 19.18 177.39 19.18"/><path class="cls-1" d="M195.84,17a3.68,3.68,0,0,0,3-1.46l1.6,1.65a6,6,0,0,1-8.74.51A5.49,5.49,0,0,1,190,13.56a5.58,5.58,0,0,1,1.7-4.15,5.76,5.76,0,0,1,4.17-1.67,5.92,5.92,0,0,1,4.61,2.1L199,11.6a3.64,3.64,0,0,0-3-1.47,3.41,3.41,0,0,0-2.41.92,3.22,3.22,0,0,0-1,2.48,3.38,3.38,0,0,0,1,2.5,3.12,3.12,0,0,0,2.29.95"/><path class="cls-1" d="M210.3,19.18l-1-2.41h-4.69l-1,2.41h-2.65L205.71,8h2.41L213,19.18Zm-3.38-7.85-1.4,3.24h2.8Z"/><polygon class="cls-1" points="222.08 8 224.57 8 224.57 19.18 222.08 19.18 216.75 12.18 216.75 19.18 214.25 19.18 214.25 8 216.59 8 222.08 15.2 222.08 8"/><path class="cls-1" d="M232.46,17a3.69,3.69,0,0,0,3-1.46l1.6,1.65a6,6,0,0,1-8.75.51,5.53,5.53,0,0,1-1.67-4.12,5.55,5.55,0,0,1,1.71-4.15,5.72,5.72,0,0,1,4.16-1.67,5.9,5.9,0,0,1,4.61,2.1l-1.55,1.76a3.64,3.64,0,0,0-2.94-1.47,3.39,3.39,0,0,0-2.41.92,3.19,3.19,0,0,0-1,2.48,3.37,3.37,0,0,0,.94,2.5,3.12,3.12,0,0,0,2.29.95"/><polygon class="cls-1" points="247.1 8 247.1 10.22 241.53 10.22 241.53 12.53 246.54 12.53 246.54 14.65 241.53 14.65 241.53 16.98 247.28 16.98 247.28 19.18 239.04 19.18 239.04 8 247.1 8"/><path class="cls-1" d="M258.57,11.71a3.29,3.29,0,0,1-2.13,3.47l2.83,4H256.2l-2.48-3.57H252v3.57h-2.5V8h4.24a6.05,6.05,0,0,1,3.72.88,3.4,3.4,0,0,1,1.11,2.83m-3,1.33a1.7,1.7,0,0,0,.47-1.32,1.41,1.41,0,0,0-.48-1.24,3.1,3.1,0,0,0-1.68-.34H252v3.32h1.82a2.66,2.66,0,0,0,1.74-.42"/><rect class="cls-1" x="265.36" y="8" width="2.5" height="11.18"/><polygon class="cls-1" points="278.43 8 280.92 8 280.92 19.18 278.43 19.18 273.1 12.18 273.1 19.18 270.6 19.18 270.6 8 272.94 8 278.43 15.2 278.43 8"/><path class="cls-1" d="M286.29,10.23a1,1,0,0,0-.36.79.89.89,0,0,0,.44.77,8,8,0,0,0,2,.68,5.59,5.59,0,0,1,2.47,1.18,2.88,2.88,0,0,1,.88,2.29,3,3,0,0,1-1.12,2.44,4.55,4.55,0,0,1-3,.93,6.85,6.85,0,0,1-4.79-2l1.49-1.82a5.28,5.28,0,0,0,3.35,1.58,1.82,1.82,0,0,0,1.08-.29,1,1,0,0,0,.39-.8.93.93,0,0,0-.42-.8,5.24,5.24,0,0,0-1.65-.6,7.08,7.08,0,0,1-2.85-1.21,2.88,2.88,0,0,1-.91-2.34,2.89,2.89,0,0,1,1.15-2.45,4.56,4.56,0,0,1,2.85-.87,6.73,6.73,0,0,1,2.24.39,5.94,5.94,0,0,1,2,1.09L290.28,11a4.89,4.89,0,0,0-3-1.1,1.49,1.49,0,0,0-1,.29"/><polygon class="cls-1" points="298.52 10.16 298.52 19.18 296.03 19.18 296.03 10.16 292.86 10.16 292.86 8 301.69 8 301.69 10.16 298.52 10.16"/><rect class="cls-1" x="303.52" y="8" width="2.5" height="11.18"/><polygon class="cls-1" points="313.5 10.16 313.5 19.18 311 19.18 311 10.16 307.83 10.16 307.83 8 316.67 8 316.67 10.16 313.5 10.16"/><path class="cls-1" d="M321.45,16.3a2.07,2.07,0,0,0,1.68.77,2,2,0,0,0,1.67-.77,3.34,3.34,0,0,0,.62-2.12V8h2.49v6.26A4.94,4.94,0,0,1,326.57,18a5.17,5.17,0,0,1-6.89,0,4.93,4.93,0,0,1-1.35-3.72V8h2.5v6.18a3.28,3.28,0,0,0,.62,2.12"/><polygon class="cls-1" points="335.24 10.16 335.24 19.18 332.75 19.18 332.75 10.16 329.58 10.16 329.58 8 338.41 8 338.41 10.16 335.24 10.16"/><polygon class="cls-1" points="348.3 8 348.3 10.22 342.73 10.22 342.73 12.53 347.74 12.53 347.74 14.65 342.73 14.65 342.73 16.98 348.47 16.98 348.47 19.18 340.23 19.18 340.23 8 348.3 8"/><path class="cls-1" d="M100.06,31.32h3.4V46h-3.4Z"/><path class="cls-1" d="M120,46l0-8.82-4.33,7.27h-1.53l-4.31-7.08V46h-3.19V31.32h2.82l5.5,9.14,5.42-9.14h2.79l0,14.7Z"/><path class="cls-1" d="M136,32a5.27,5.27,0,0,1,2.21,7.51A5,5,0,0,1,136,41.33a8.42,8.42,0,0,1-3.4.64h-3V46h-3.4V31.32h6.36A8.25,8.25,0,0,1,136,32Zm-1.25,6.56a2.29,2.29,0,0,0,.79-1.88,2.34,2.34,0,0,0-.79-1.9,3.59,3.59,0,0,0-2.33-.66h-2.78v5.1h2.78A3.59,3.59,0,0,0,134.77,38.53Z"/><path class="cls-1" d="M149,42.87h-6.82L140.86,46h-3.49l6.55-14.7h3.36L153.86,46h-3.57Zm-1.07-2.58-2.33-5.63-2.33,5.63Z"/><path class="cls-1" d="M157.39,45.29a7.36,7.36,0,0,1-2.86-2.7A7.53,7.53,0,0,1,157.39,32a9.16,9.16,0,0,1,7.54-.3,6.92,6.92,0,0,1,2.59,1.93l-2.18,2a4.7,4.7,0,0,0-3.7-1.72,5,5,0,0,0-2.43.59,4.26,4.26,0,0,0-1.67,1.67,5.26,5.26,0,0,0,0,4.88,4.26,4.26,0,0,0,1.67,1.67,5,5,0,0,0,2.43.59,4.69,4.69,0,0,0,3.7-1.74l2.18,2a6.89,6.89,0,0,1-2.6,2,8.63,8.63,0,0,1-3.47.67A8.35,8.35,0,0,1,157.39,45.29Z"/><path class="cls-1" d="M175.12,31.32h3.41V46h-3.41Z"/><path class="cls-1" d="M181.63,31.32H185V46h-3.41Z"/><path class="cls-1" d="M204.8,43.29V46H193.41V31.32h11.11v2.73h-7.73v3.19h6.83v2.65h-6.83v3.4Z"/><path class="cls-1" d="M214.3,46l-2.48-3.47L209.26,46h-3.57L210,40.33l-4.2-5.61h3.67l2.4,3.3,2.45-3.3h3.49l-4.2,5.53L218,46Z"/><path class="cls-1" d="M227,45.47a3.43,3.43,0,0,1-1.19.54,5.94,5.94,0,0,1-1.48.18,4.45,4.45,0,0,1-3.12-1,4,4,0,0,1-1.1-3V37.49h-1.74V35h1.74V32.22h3.27V35h2.82v2.52h-2.82v4.6a1.58,1.58,0,0,0,.37,1.11,1.4,1.4,0,0,0,1,.38,2.08,2.08,0,0,0,1.32-.42Z"/><path class="cls-1" d="M239.23,41.29h-8.55a2.63,2.63,0,0,0,1.1,1.66,3.56,3.56,0,0,0,2.14.61,4.18,4.18,0,0,0,1.56-.26,3.62,3.62,0,0,0,1.27-.83l1.75,1.89a5.87,5.87,0,0,1-4.67,1.83,7.35,7.35,0,0,1-3.38-.75,5.42,5.42,0,0,1-2.27-2.07,5.7,5.7,0,0,1-.79-3,5.8,5.8,0,0,1,.78-3,5.57,5.57,0,0,1,2.17-2.08,6.66,6.66,0,0,1,6.08,0,5.2,5.2,0,0,1,2.11,2,6.08,6.08,0,0,1,.76,3.09C239.29,40.46,239.27,40.75,239.23,41.29Zm-7.66-3.63a2.67,2.67,0,0,0-.93,1.72h5.57a2.74,2.74,0,0,0-.93-1.71,3,3,0,0,0-3.71,0Z"/><path class="cls-1" d="M251.23,35.81a5,5,0,0,1,1.29,3.74V46h-3.27v-6a3,3,0,0,0-.59-2,2.16,2.16,0,0,0-1.7-.66,2.58,2.58,0,0,0-2,.77,3.16,3.16,0,0,0-.73,2.27V46H241V34.72h3.13V36a4.43,4.43,0,0,1,1.62-1.1,5.59,5.59,0,0,1,2.12-.39A4.64,4.64,0,0,1,251.23,35.81Z"/><path class="cls-1" d="M256.14,45.84A7.19,7.19,0,0,1,254,45l1.09-2.35a7.36,7.36,0,0,0,1.83.79,7.72,7.72,0,0,0,2.1.3c1.39,0,2.08-.34,2.08-1a.73.73,0,0,0-.57-.69,8.4,8.4,0,0,0-1.74-.36,17.27,17.27,0,0,1-2.29-.48,3.55,3.55,0,0,1-1.56-1,2.74,2.74,0,0,1-.66-2,3.08,3.08,0,0,1,.61-1.9A3.93,3.93,0,0,1,256.7,35a7.67,7.67,0,0,1,2.8-.47,10.75,10.75,0,0,1,2.39.27,6.48,6.48,0,0,1,2,.72l-1.09,2.33A6.54,6.54,0,0,0,259.5,37a3.23,3.23,0,0,0-1.57.3.85.85,0,0,0-.53.75.76.76,0,0,0,.57.74,10.4,10.4,0,0,0,1.81.4,17.41,17.41,0,0,1,2.26.49,3.35,3.35,0,0,1,1.54,1,2.71,2.71,0,0,1,.65,1.93,3,3,0,0,1-.63,1.87,4,4,0,0,1-1.84,1.27,8.18,8.18,0,0,1-2.86.45A11.11,11.11,0,0,1,256.14,45.84Z"/><path class="cls-1" d="M266,32.62a1.79,1.79,0,0,1,0-2.6,2.1,2.1,0,0,1,1.48-.53A2.12,2.12,0,0,1,269,30a1.62,1.62,0,0,1,.56,1.26,1.81,1.81,0,0,1-.56,1.35,2.05,2.05,0,0,1-1.47.54A2.1,2.1,0,0,1,266,32.62Zm-.16,2.1h3.27V46h-3.27Z"/><path class="cls-1" d="M273.8,45.44a5.47,5.47,0,0,1-2.22-2.07,6.09,6.09,0,0,1,0-6,5.61,5.61,0,0,1,2.22-2.07,7.18,7.18,0,0,1,6.39,0,5.59,5.59,0,0,1,2.21,2.07,6,6,0,0,1,0,6,5.45,5.45,0,0,1-2.21,2.07,7.18,7.18,0,0,1-6.39,0Zm5.27-2.79a3.61,3.61,0,0,0,0-4.56,2.76,2.76,0,0,0-2.07-.85,2.8,2.8,0,0,0-2.08.85,3.58,3.58,0,0,0,0,4.56,2.76,2.76,0,0,0,2.08.85A2.72,2.72,0,0,0,279.07,42.65Z"/><path class="cls-1" d="M295.16,35.81a5,5,0,0,1,1.29,3.74V46h-3.27v-6a3,3,0,0,0-.59-2,2.16,2.16,0,0,0-1.7-.66,2.58,2.58,0,0,0-2,.77,3.16,3.16,0,0,0-.73,2.27V46H284.9V34.72H288V36a4.43,4.43,0,0,1,1.62-1.1,5.59,5.59,0,0,1,2.12-.39A4.64,4.64,0,0,1,295.16,35.81Z"/><path class="cls-1" d="M306.42,45.8a7.89,7.89,0,0,1-2.62-1.23L305,42a8,8,0,0,0,2.24,1.11,8.48,8.48,0,0,0,2.61.42,4.13,4.13,0,0,0,2.14-.43,1.3,1.3,0,0,0,.69-1.14,1.07,1.07,0,0,0-.41-.87,2.91,2.91,0,0,0-1.05-.56c-.42-.14-1-.29-1.73-.46a25.8,25.8,0,0,1-2.75-.8A4.51,4.51,0,0,1,304.86,38a3.46,3.46,0,0,1-.76-2.35,4.08,4.08,0,0,1,.69-2.32,4.57,4.57,0,0,1,2.09-1.65,8.45,8.45,0,0,1,3.41-.61,11.44,11.44,0,0,1,2.75.33,8.22,8.22,0,0,1,2.35,1L314.34,35a8.15,8.15,0,0,0-4.07-1.15,3.8,3.8,0,0,0-2.11.46,1.4,1.4,0,0,0-.68,1.22,1.19,1.19,0,0,0,.78,1.12,12.24,12.24,0,0,0,2.41.73,23.87,23.87,0,0,1,2.75.79,4.67,4.67,0,0,1,1.84,1.26,3.41,3.41,0,0,1,.76,2.33,4,4,0,0,1-.7,2.3,4.63,4.63,0,0,1-2.11,1.65,8.54,8.54,0,0,1-3.42.61A12.19,12.19,0,0,1,306.42,45.8Z"/><path class="cls-1" d="M329.1,34.72V46H326V44.68a4.35,4.35,0,0,1-1.56,1.12,5.35,5.35,0,0,1-5.48-.89,5.1,5.1,0,0,1-1.3-3.8V34.72h3.28v5.9c0,1.82.76,2.73,2.29,2.73a2.47,2.47,0,0,0,1.89-.76,3.26,3.26,0,0,0,.71-2.28V34.72Z"/><path class="cls-1" d="M331.76,32.62a1.77,1.77,0,0,1,0-2.6,2.09,2.09,0,0,1,1.47-.53,2.12,2.12,0,0,1,1.47.51,1.6,1.6,0,0,1,.57,1.26,1.78,1.78,0,0,1-.57,1.35,2.05,2.05,0,0,1-1.47.54A2.09,2.09,0,0,1,331.76,32.62Zm-.17,2.1h3.28V46h-3.28Z"/><path class="cls-1" d="M344.75,45.47a3.35,3.35,0,0,1-1.19.54,5.94,5.94,0,0,1-1.48.18,4.45,4.45,0,0,1-3.12-1,4,4,0,0,1-1.1-3V37.49h-1.74V35h1.74V32.22h3.28V35H344v2.52h-2.81v4.6a1.58,1.58,0,0,0,.36,1.11,1.41,1.41,0,0,0,1,.38,2.13,2.13,0,0,0,1.33-.42Z"/><path class="cls-1" d="M357,41.29h-8.54A2.58,2.58,0,0,0,349.53,43a3.58,3.58,0,0,0,2.14.61,4.27,4.27,0,0,0,1.57-.26,3.81,3.81,0,0,0,1.27-.83l1.74,1.89a5.86,5.86,0,0,1-4.66,1.83,7.32,7.32,0,0,1-3.38-.75,5.37,5.37,0,0,1-2.27-2.07,6,6,0,0,1,0-6,5.47,5.47,0,0,1,2.16-2.08,6.65,6.65,0,0,1,6.08,0,5.14,5.14,0,0,1,2.11,2,6.08,6.08,0,0,1,.77,3.09C357.05,40.46,357,40.75,357,41.29Zm-7.66-3.63a2.71,2.71,0,0,0-.93,1.72H354a2.73,2.73,0,0,0-.92-1.71,3,3,0,0,0-3.72,0Z"/><path class="cls-1" d="M365.25,44.66a21.78,21.78,0,0,1,0-10.8,14.74,14.74,0,0,1,1.94-4.42h3.13a18.86,18.86,0,0,0-1.93,4.73,21.58,21.58,0,0,0,0,10.19,18.86,18.86,0,0,0,1.93,4.73h-3.13A15,15,0,0,1,365.25,44.66Z"/><path class="cls-1" d="M373,31.32h3.4V46H373Z"/><path class="cls-1" d="M389.57,43.25V46h-11.1V43.81l5.67-5.35A6,6,0,0,0,385.35,37a2.68,2.68,0,0,0,.32-1.23,1.6,1.6,0,0,0-.6-1.35,2.74,2.74,0,0,0-1.75-.48,4.12,4.12,0,0,0-1.75.37,3.43,3.43,0,0,0-1.3,1.1l-2.48-1.59a5.88,5.88,0,0,1,2.38-2,7.93,7.93,0,0,1,3.46-.72,7.28,7.28,0,0,1,2.87.53,4.41,4.41,0,0,1,1.91,1.52,3.93,3.93,0,0,1,.68,2.3,5.2,5.2,0,0,1-.5,2.24,8.77,8.77,0,0,1-2,2.4l-3.38,3.19Z"/><path class="cls-1" d="M403.17,43.29V46H391.79V31.32H402.9v2.73h-7.73v3.19H402v2.65h-6.83v3.4Z"/><path class="cls-1" d="M404.31,49.09a19.67,19.67,0,0,0,1.94-4.73,21.24,21.24,0,0,0,0-10.19,19.67,19.67,0,0,0-1.94-4.73h3.12a14.19,14.19,0,0,1,2,4.4,20.92,20.92,0,0,1,.68,5.43,20.7,20.7,0,0,1-.67,5.4,14.28,14.28,0,0,1-2,4.42Z"/></g></g></svg>