<svg xmlns="http://www.w3.org/2000/svg" viewBox="0 0 87 54"><defs><style>.cls-1{fill:#fff;}</style></defs><title>NIH_LogoIcon_White</title><g id="Layer_2" data-name="Layer 2"><g id="Layer_1-2" data-name="Layer 1"><path class="cls-1" d="M73.5,2.82a5.84,5.84,0,0,0-5-2.82H64L79.2,27,64,54h4.49a5.86,5.86,0,0,0,5-2.81L87,27Z"/><path class="cls-1" d="M60,0H5.77A5.78,5.78,0,0,0,0,5.79V48.21A5.78,5.78,0,0,0,5.77,54H60L75,27ZM28,39H24L13,21.4V39H9V15h4L24,32.6V15h4Zm8,0H32V15h4Zm23,0H55V29H44V39H40V15h4V25H55V15h4Z"/></g></g></svg>