<?xml version="1.0" encoding="utf-8"?>
<!-- Generator: Adobe Illustrator 25.1.0, SVG Export Plug-In . SVG Version: 6.00 Build 0)  -->
<svg version="1.1" id="Layer_1" xmlns="http://www.w3.org/2000/svg" xmlns:xlink="http://www.w3.org/1999/xlink" x="0px" y="0px"
	 viewBox="0 0 20 15" style="enable-background:new 0 0 20 15;" xml:space="preserve">
<path d="M18.4,0H7.5C7,0,6.6,0.2,6.3,0.5L0.5,6.3C-0.2,7-0.2,8,0.5,8.6l5.9,5.9C6.7,14.8,7.1,15,7.5,15h10.9c0.9,0,1.6-0.7,1.6-1.6
	V1.6C20,0.7,19.3,0,18.4,0z M16.3,9.6c0.2,0.2,0.2,0.4,0,0.6L15,11.5c-0.2,0.2-0.4,0.2-0.6,0l-2.2-2.2L10,11.5
	c-0.2,0.2-0.4,0.2-0.6,0l-1.3-1.3C8,10,8,9.8,8.2,9.6l2.2-2.2L8.2,5.3C8,5.1,8,4.9,8.2,4.7l1.3-1.3c0.2-0.2,0.4-0.2,0.6,0l2.2,2.2
	l2.2-2.2c0.2-0.2,0.4-0.2,0.6,0l1.3,1.3c0.2,0.2,0.2,0.4,0,0.6l-2.2,2.2L16.3,9.6z"/>
</svg>
